<?xml version="1.0" standalone="no"?>
<!DOCTYPE svg PUBLIC "-//W3C//DTD SVG 20010904//EN"
 "http://www.w3.org/TR/2001/REC-SVG-20010904/DTD/svg10.dtd">
<svg version="1.0" xmlns="http://www.w3.org/2000/svg"
 width="262.000000pt" height="262.000000pt" viewBox="0 0 262.000000 262.000000"
 preserveAspectRatio="xMidYMid meet">
<metadata>
Created by potrace 1.11, written by Peter Selinger 2001-2013
</metadata>
<g transform="translate(0.000000,262.000000) scale(0.100000,-0.100000)"
fill="#000000" stroke="none">
<path d="M1170 2605 c-8 -2 -49 -9 -90 -15 -368 -60 -725 -315 -915 -655 -52
-92 -110 -255 -136 -375 -30 -146 -30 -362 1 -510 85 -413 339 -740 715 -921
66 -32 132 -61 148 -65 33 -8 34 2 8 83 -44 132 -73 195 -134 289 -164 254
-200 327 -280 570 -84 253 -137 432 -137 461 0 11 6 27 13 37 12 17 20 11 89
-66 86 -94 136 -181 208 -358 58 -143 86 -193 132 -238 l35 -33 18 35 c18 33
18 36 1 81 -19 49 -17 66 4 40 7 -8 20 -15 29 -15 10 0 49 -27 87 -60 74 -64
97 -72 114 -39 13 22 12 25 -50 100 l-35 44 35 -22 c91 -55 133 -73 146 -62
24 20 16 36 -41 85 -30 26 -53 49 -52 51 2 2 32 -8 66 -22 67 -28 81 -26 81 9
0 17 -13 30 -50 50 -27 15 -50 29 -50 31 0 2 22 1 49 -2 44 -5 50 -3 56 17 10
31 -3 41 -130 94 -148 63 -181 83 -228 138 l-39 47 16 443 c9 244 19 455 22
470 7 31 39 68 58 68 8 0 24 -8 36 -18 19 -15 25 -43 50 -232 82 -614 105
-745 122 -703 4 10 28 122 53 248 39 202 61 325 121 685 8 47 19 95 24 108 12
28 51 29 76 1 17 -19 19 -36 17 -183 -2 -88 -8 -242 -14 -341 -11 -171 -6
-423 9 -479 6 -20 20 21 65 181 122 442 167 597 182 620 18 26 60 31 69 7 3
-9 6 -77 6 -152 0 -139 -12 -269 -50 -557 -14 -102 -19 -179 -15 -214 l7 -53
65 118 c36 66 77 144 92 174 71 148 106 170 156 94 20 -31 18 -40 -77 -338
-52 -165 -93 -311 -169 -604 -10 -40 -30 -109 -43 -155 -29 -92 -44 -168 -85
-405 l-28 -163 31 7 c69 15 181 56 258 95 367 185 617 511 705 919 25 119 25
391 -1 510 -56 258 -177 482 -361 665 -182 183 -402 303 -660 360 -64 14 -367
30 -405 20z"/>
</g>
</svg>
